<?xml version="1.0" encoding="utf-8"?>
<!-- Generator: Adobe Illustrator 16.0.0, SVG Export Plug-In . SVG Version: 6.00 Build 0)  -->
<!DOCTYPE svg PUBLIC "-//W3C//DTD SVG 1.1//EN" "http://www.w3.org/Graphics/SVG/1.1/DTD/svg11.dtd">
<svg version="1.1" id="Layer_1" xmlns="http://www.w3.org/2000/svg" xmlns:xlink="http://www.w3.org/1999/xlink" x="0px" y="0px"
	 width="30px" height="40px" viewBox="0 0 30 40" enable-background="new 0 0 30 40" xml:space="preserve">
<g id="Layer_1_1_" display="none">
	<g display="inline">
		<line opacity="0.3" fill="none" stroke="#449FDB" enable-background="new    " x1="16" y1="0" x2="16" y2="640"/>
		<line fill="none" stroke="#449FDB" x1="32" y1="0" x2="32" y2="640"/>
		<line opacity="0.3" fill="none" stroke="#449FDB" enable-background="new    " x1="48" y1="0" x2="48" y2="640"/>
		<line fill="none" stroke="#449FDB" x1="64" y1="0" x2="64" y2="640"/>
		<line opacity="0.3" fill="none" stroke="#449FDB" enable-background="new    " x1="80" y1="0" x2="80" y2="640"/>
		<line fill="none" stroke="#449FDB" x1="96" y1="0" x2="96" y2="640"/>
		<line opacity="0.3" fill="none" stroke="#449FDB" enable-background="new    " x1="112" y1="0" x2="112" y2="640"/>
		<line fill="none" stroke="#449FDB" x1="128" y1="0" x2="128" y2="640"/>
		<line opacity="0.3" fill="none" stroke="#449FDB" enable-background="new    " x1="144" y1="0" x2="144" y2="640"/>
		<line fill="none" stroke="#449FDB" x1="160" y1="0" x2="160" y2="640"/>
		<line opacity="0.3" fill="none" stroke="#449FDB" enable-background="new    " x1="176" y1="0" x2="176" y2="640"/>
		<line fill="none" stroke="#449FDB" x1="192" y1="0" x2="192" y2="640"/>
		<line opacity="0.3" fill="none" stroke="#449FDB" enable-background="new    " x1="208" y1="0" x2="208" y2="640"/>
		<line fill="none" stroke="#449FDB" x1="224" y1="0" x2="224" y2="640"/>
		<line opacity="0.3" fill="none" stroke="#449FDB" enable-background="new    " x1="240" y1="0" x2="240" y2="640"/>
		<line fill="none" stroke="#449FDB" x1="256" y1="0" x2="256" y2="640"/>
		<line opacity="0.3" fill="none" stroke="#449FDB" enable-background="new    " x1="272" y1="0" x2="272" y2="640"/>
		<line fill="none" stroke="#449FDB" x1="288" y1="0" x2="288" y2="640"/>
		<line opacity="0.3" fill="none" stroke="#449FDB" enable-background="new    " x1="304" y1="0" x2="304" y2="640"/>
		<line fill="none" stroke="#449FDB" x1="320" y1="0" x2="320" y2="640"/>
		<line opacity="0.3" fill="none" stroke="#449FDB" enable-background="new    " x1="336" y1="0" x2="336" y2="640"/>
		<line fill="none" stroke="#449FDB" x1="352" y1="0" x2="352" y2="640"/>
		<line opacity="0.3" fill="none" stroke="#449FDB" enable-background="new    " x1="368" y1="0" x2="368" y2="640"/>
		<line fill="none" stroke="#449FDB" x1="384" y1="0" x2="384" y2="640"/>
		<line opacity="0.3" fill="none" stroke="#449FDB" enable-background="new    " x1="400" y1="0" x2="400" y2="640"/>
		<line fill="none" stroke="#449FDB" x1="416" y1="0" x2="416" y2="640"/>
		<line opacity="0.3" fill="none" stroke="#449FDB" enable-background="new    " x1="432" y1="0" x2="432" y2="640"/>
		<line fill="none" stroke="#449FDB" x1="448" y1="0" x2="448" y2="640"/>
		<line opacity="0.3" fill="none" stroke="#449FDB" enable-background="new    " x1="464" y1="0" x2="464" y2="640"/>
		<line fill="none" stroke="#449FDB" x1="480" y1="0" x2="480" y2="640"/>
		<line opacity="0.3" fill="none" stroke="#449FDB" enable-background="new    " x1="496" y1="0" x2="496" y2="640"/>
		<line fill="none" stroke="#449FDB" x1="512" y1="0" x2="512" y2="640"/>
		<line opacity="0.3" fill="none" stroke="#449FDB" enable-background="new    " x1="528" y1="0" x2="528" y2="640"/>
		<line fill="none" stroke="#449FDB" x1="544" y1="0" x2="544" y2="640"/>
		<line opacity="0.3" fill="none" stroke="#449FDB" enable-background="new    " x1="560" y1="0" x2="560" y2="640"/>
		<line fill="none" stroke="#449FDB" x1="576" y1="0" x2="576" y2="640"/>
		<line opacity="0.3" fill="none" stroke="#449FDB" enable-background="new    " x1="592" y1="0" x2="592" y2="640"/>
		<line fill="none" stroke="#449FDB" x1="608" y1="0" x2="608" y2="640"/>
		<line opacity="0.3" fill="none" stroke="#449FDB" enable-background="new    " x1="624" y1="0" x2="624" y2="640"/>
		<line opacity="0.3" fill="none" stroke="#449FDB" enable-background="new    " x1="0" y1="16" x2="640" y2="16"/>
		<line fill="none" stroke="#449FDB" x1="0" y1="32" x2="640" y2="32"/>
		<line opacity="0.3" fill="none" stroke="#449FDB" enable-background="new    " x1="0" y1="48" x2="640" y2="48"/>
		<line fill="none" stroke="#449FDB" x1="0" y1="64" x2="640" y2="64"/>
		<line opacity="0.3" fill="none" stroke="#449FDB" enable-background="new    " x1="0" y1="80" x2="640" y2="80"/>
		<line fill="none" stroke="#449FDB" x1="0" y1="96" x2="640" y2="96"/>
		<line opacity="0.3" fill="none" stroke="#449FDB" enable-background="new    " x1="0" y1="112" x2="640" y2="112"/>
		<line fill="none" stroke="#449FDB" x1="0" y1="128" x2="640" y2="128"/>
		<line opacity="0.3" fill="none" stroke="#449FDB" enable-background="new    " x1="0" y1="144" x2="640" y2="144"/>
		<line fill="none" stroke="#449FDB" x1="0" y1="160" x2="640" y2="160"/>
		<line opacity="0.3" fill="none" stroke="#449FDB" enable-background="new    " x1="0" y1="176" x2="640" y2="176"/>
		<line fill="none" stroke="#449FDB" x1="0" y1="192" x2="640" y2="192"/>
		<line opacity="0.3" fill="none" stroke="#449FDB" enable-background="new    " x1="0" y1="208" x2="640" y2="208"/>
		<line fill="none" stroke="#449FDB" x1="0" y1="224" x2="640" y2="224"/>
		<line opacity="0.3" fill="none" stroke="#449FDB" enable-background="new    " x1="0" y1="240" x2="640" y2="240"/>
		<line fill="none" stroke="#449FDB" x1="0" y1="256" x2="640" y2="256"/>
		<line opacity="0.3" fill="none" stroke="#449FDB" enable-background="new    " x1="0" y1="272" x2="640" y2="272"/>
		<line fill="none" stroke="#449FDB" x1="0" y1="288" x2="640" y2="288"/>
		<line opacity="0.3" fill="none" stroke="#449FDB" enable-background="new    " x1="0" y1="304" x2="640" y2="304"/>
		<line fill="none" stroke="#449FDB" x1="0" y1="320" x2="640" y2="320"/>
		<line opacity="0.3" fill="none" stroke="#449FDB" enable-background="new    " x1="0" y1="336" x2="640" y2="336"/>
		<line fill="none" stroke="#449FDB" x1="0" y1="352" x2="640" y2="352"/>
		<line opacity="0.3" fill="none" stroke="#449FDB" enable-background="new    " x1="0" y1="368" x2="640" y2="368"/>
		<line fill="none" stroke="#449FDB" x1="0" y1="384" x2="640" y2="384"/>
		<line opacity="0.3" fill="none" stroke="#449FDB" enable-background="new    " x1="0" y1="400" x2="640" y2="400"/>
		<line fill="none" stroke="#449FDB" x1="0" y1="416" x2="640" y2="416"/>
		<line opacity="0.3" fill="none" stroke="#449FDB" enable-background="new    " x1="0" y1="432" x2="640" y2="432"/>
		<line fill="none" stroke="#449FDB" x1="0" y1="448" x2="640" y2="448"/>
		<line opacity="0.3" fill="none" stroke="#449FDB" enable-background="new    " x1="0" y1="464" x2="640" y2="464"/>
		<line fill="none" stroke="#449FDB" x1="0" y1="480" x2="640" y2="480"/>
		<line opacity="0.3" fill="none" stroke="#449FDB" enable-background="new    " x1="0" y1="496" x2="640" y2="496"/>
		<line fill="none" stroke="#449FDB" x1="0" y1="512" x2="640" y2="512"/>
		<line opacity="0.3" fill="none" stroke="#449FDB" enable-background="new    " x1="0" y1="528" x2="640" y2="528"/>
		<line fill="none" stroke="#449FDB" x1="0" y1="544" x2="640" y2="544"/>
		<line opacity="0.3" fill="none" stroke="#449FDB" enable-background="new    " x1="0" y1="560" x2="640" y2="560"/>
		<line fill="none" stroke="#449FDB" x1="0" y1="576" x2="640" y2="576"/>
		<line opacity="0.3" fill="none" stroke="#449FDB" enable-background="new    " x1="0" y1="592" x2="640" y2="592"/>
		<line fill="none" stroke="#449FDB" x1="0" y1="608" x2="640" y2="608"/>
		<line opacity="0.3" fill="none" stroke="#449FDB" enable-background="new    " x1="0" y1="624" x2="640" y2="624"/>
	</g>
</g>
<g id="Layer_2">
	<path fill="#404040" d="M15,23.49c-1.507,0-2.726,1.234-2.726,2.755S13.493,29,15,29c1.506,0,2.727-1.234,2.727-2.755
		S16.506,23.49,15,23.49z M9.214,20.4l1.929,1.949c2.129-2.151,5.583-2.151,7.714,0l1.929-1.949
		C17.59,17.172,12.409,17.172,9.214,20.4L9.214,20.4z M5.357,16.504l1.927,1.948c4.261-4.304,11.168-4.304,15.429,0l1.93-1.948
		C19.316,11.125,10.683,11.125,5.357,16.504L5.357,16.504z M1.5,12.609l1.929,1.947c6.392-6.457,16.752-6.457,23.143,0l1.929-1.947
		C21.045,5.076,8.955,5.076,1.5,12.609L1.5,12.609z"/>
</g>
</svg>
