<?xml version="1.0" encoding="utf-8"?>
<!-- Generator: Adobe Illustrator 16.0.0, SVG Export Plug-In . SVG Version: 6.00 Build 0)  -->
<!DOCTYPE svg PUBLIC "-//W3C//DTD SVG 1.1//EN" "http://www.w3.org/Graphics/SVG/1.1/DTD/svg11.dtd">
<svg version="1.1" id="Layer_1" xmlns="http://www.w3.org/2000/svg" xmlns:xlink="http://www.w3.org/1999/xlink" x="0px" y="0px"
	 width="30px" height="40px" viewBox="0 0 30 40" enable-background="new 0 0 30 40" xml:space="preserve">
<path fill="#1A1A1A" d="M25.512,12.044C21.234,9.201,16.434,8.219,10.74,9.85c-4.444,1.274-8.518,6.328-8.832,10.657
	C1.534,25.624,5.521,30.007,12.54,30c7.567-0.01,10.399-3.643,10.463-4.746c0.062-1.104-2.952-3.146-1.012-5.246
	c2.432-2.629,4.595-0.389,5.907-0.704C29.21,18.988,29.874,14.948,25.512,12.044L25.512,12.044z M16.729,25.741
	c-1.145,0-2.071-0.927-2.071-2.067s0.928-2.064,2.071-2.064c1.145,0,2.071,0.924,2.071,2.064
	C18.799,24.814,17.874,25.741,16.729,25.741z"/>
</svg>
