<?xml version="1.0" encoding="utf-8"?>
<!-- Generator: Adobe Illustrator 16.0.0, SVG Export Plug-In . SVG Version: 6.00 Build 0)  -->
<!DOCTYPE svg PUBLIC "-//W3C//DTD SVG 1.1//EN" "http://www.w3.org/Graphics/SVG/1.1/DTD/svg11.dtd">
<svg version="1.1" id="Layer_1" xmlns="http://www.w3.org/2000/svg" xmlns:xlink="http://www.w3.org/1999/xlink" x="0px" y="0px"
	 width="30px" height="40px" viewBox="0 0 30 40" enable-background="new 0 0 30 40" xml:space="preserve">
<path fill="#F79C7C" d="M25.8,7.4H4.2c-1.485,0-2.7,1.215-2.7,2.7v16.2c0,1.485,1.215,2.7,2.7,2.7h21.6c1.487,0,2.7-1.215,2.7-2.7
	V10.1C28.5,8.615,27.287,7.4,25.8,7.4z M25.8,26.3H4.2V10.1h21.6V26.3z M13.65,21.035H6.9v2.431h6.75V21.035z M13.65,16.985H6.9
	v2.429h6.75V16.985z M13.65,12.935H6.9v2.43h6.75V12.935z M22.965,21.575c0,0-2.294-0.599-2.294-1.78
	c0-1.121,1.486-1.595,1.486-3.89c0-1.863-0.567-2.97-2.433-2.97c-1.863,0-2.433,1.105-2.433,2.97c0,2.295,1.483,2.769,1.483,3.89
	c0,1.182-2.295,1.78-2.295,1.78c-0.137,0-0.137,1.891-0.137,1.891h6.75C23.1,23.466,23.1,21.575,22.965,21.575z"/>
</svg>
