<?xml version="1.0" encoding="utf-8"?>
<!-- Generator: Adobe Illustrator 16.0.0, SVG Export Plug-In . SVG Version: 6.00 Build 0)  -->
<!DOCTYPE svg PUBLIC "-//W3C//DTD SVG 1.1//EN" "http://www.w3.org/Graphics/SVG/1.1/DTD/svg11.dtd">
<svg version="1.1" id="Layer_1" xmlns="http://www.w3.org/2000/svg" xmlns:xlink="http://www.w3.org/1999/xlink" x="0px" y="0px"
	 width="20px" height="20px" viewBox="10 10 20 20" enable-background="new 10 10 20 20" xml:space="preserve">
<g id="Layer_1_1_" display="none">
	<g display="inline">
		<line opacity="0.3" fill="none" stroke="#449FDB" enable-background="new    " x1="16" y1="0" x2="16" y2="512"/>
		<line fill="none" stroke="#449FDB" x1="32" y1="0" x2="32" y2="512"/>
		<line opacity="0.3" fill="none" stroke="#449FDB" enable-background="new    " x1="48" y1="0" x2="48" y2="512"/>
		<line fill="none" stroke="#449FDB" x1="64" y1="0" x2="64" y2="512"/>
		<line opacity="0.3" fill="none" stroke="#449FDB" enable-background="new    " x1="80" y1="0" x2="80" y2="512"/>
		<line fill="none" stroke="#449FDB" x1="96" y1="0" x2="96" y2="512"/>
		<line opacity="0.3" fill="none" stroke="#449FDB" enable-background="new    " x1="112" y1="0" x2="112" y2="512"/>
		<line fill="none" stroke="#449FDB" x1="128" y1="0" x2="128" y2="512"/>
		<line opacity="0.3" fill="none" stroke="#449FDB" enable-background="new    " x1="144" y1="0" x2="144" y2="512"/>
		<line fill="none" stroke="#449FDB" x1="160" y1="0" x2="160" y2="512"/>
		<line opacity="0.3" fill="none" stroke="#449FDB" enable-background="new    " x1="176" y1="0" x2="176" y2="512"/>
		<line fill="none" stroke="#449FDB" x1="192" y1="0" x2="192" y2="512"/>
		<line opacity="0.3" fill="none" stroke="#449FDB" enable-background="new    " x1="208" y1="0" x2="208" y2="512"/>
		<line fill="none" stroke="#449FDB" x1="224" y1="0" x2="224" y2="512"/>
		<line opacity="0.3" fill="none" stroke="#449FDB" enable-background="new    " x1="240" y1="0" x2="240" y2="512"/>
		<line fill="none" stroke="#449FDB" x1="256" y1="0" x2="256" y2="512"/>
		<line opacity="0.3" fill="none" stroke="#449FDB" enable-background="new    " x1="272" y1="0" x2="272" y2="512"/>
		<line fill="none" stroke="#449FDB" x1="288" y1="0" x2="288" y2="512"/>
		<line opacity="0.3" fill="none" stroke="#449FDB" enable-background="new    " x1="304" y1="0" x2="304" y2="512"/>
		<line fill="none" stroke="#449FDB" x1="320" y1="0" x2="320" y2="512"/>
		<line opacity="0.3" fill="none" stroke="#449FDB" enable-background="new    " x1="336" y1="0" x2="336" y2="512"/>
		<line fill="none" stroke="#449FDB" x1="352" y1="0" x2="352" y2="512"/>
		<line opacity="0.3" fill="none" stroke="#449FDB" enable-background="new    " x1="368" y1="0" x2="368" y2="512"/>
		<line fill="none" stroke="#449FDB" x1="384" y1="0" x2="384" y2="512"/>
		<line opacity="0.3" fill="none" stroke="#449FDB" enable-background="new    " x1="400" y1="0" x2="400" y2="512"/>
		<line fill="none" stroke="#449FDB" x1="416" y1="0" x2="416" y2="512"/>
		<line opacity="0.3" fill="none" stroke="#449FDB" enable-background="new    " x1="432" y1="0" x2="432" y2="512"/>
		<line fill="none" stroke="#449FDB" x1="448" y1="0" x2="448" y2="512"/>
		<line opacity="0.3" fill="none" stroke="#449FDB" enable-background="new    " x1="464" y1="0" x2="464" y2="512"/>
		<line fill="none" stroke="#449FDB" x1="480" y1="0" x2="480" y2="512"/>
		<line opacity="0.3" fill="none" stroke="#449FDB" enable-background="new    " x1="496" y1="0" x2="496" y2="512"/>
		<line opacity="0.3" fill="none" stroke="#449FDB" enable-background="new    " x1="0" y1="16" x2="512" y2="16"/>
		<line fill="none" stroke="#449FDB" x1="0" y1="32" x2="512" y2="32"/>
		<line opacity="0.3" fill="none" stroke="#449FDB" enable-background="new    " x1="0" y1="48" x2="512" y2="48"/>
		<line fill="none" stroke="#449FDB" x1="0" y1="64" x2="512" y2="64"/>
		<line opacity="0.3" fill="none" stroke="#449FDB" enable-background="new    " x1="0" y1="80" x2="512" y2="80"/>
		<line fill="none" stroke="#449FDB" x1="0" y1="96" x2="512" y2="96"/>
		<line opacity="0.3" fill="none" stroke="#449FDB" enable-background="new    " x1="0" y1="112" x2="512" y2="112"/>
		<line fill="none" stroke="#449FDB" x1="0" y1="128" x2="512" y2="128"/>
		<line opacity="0.3" fill="none" stroke="#449FDB" enable-background="new    " x1="0" y1="144" x2="512" y2="144"/>
		<line fill="none" stroke="#449FDB" x1="0" y1="160" x2="512" y2="160"/>
		<line opacity="0.3" fill="none" stroke="#449FDB" enable-background="new    " x1="0" y1="176" x2="512" y2="176"/>
		<line fill="none" stroke="#449FDB" x1="0" y1="192" x2="512" y2="192"/>
		<line opacity="0.3" fill="none" stroke="#449FDB" enable-background="new    " x1="0" y1="208" x2="512" y2="208"/>
		<line fill="none" stroke="#449FDB" x1="0" y1="224" x2="512" y2="224"/>
		<line opacity="0.3" fill="none" stroke="#449FDB" enable-background="new    " x1="0" y1="240" x2="512" y2="240"/>
		<line fill="none" stroke="#449FDB" x1="0" y1="256" x2="512" y2="256"/>
		<line opacity="0.3" fill="none" stroke="#449FDB" enable-background="new    " x1="0" y1="272" x2="512" y2="272"/>
		<line fill="none" stroke="#449FDB" x1="0" y1="288" x2="512" y2="288"/>
		<line opacity="0.3" fill="none" stroke="#449FDB" enable-background="new    " x1="0" y1="304" x2="512" y2="304"/>
		<line fill="none" stroke="#449FDB" x1="0" y1="320" x2="512" y2="320"/>
		<line opacity="0.3" fill="none" stroke="#449FDB" enable-background="new    " x1="0" y1="336" x2="512" y2="336"/>
		<line fill="none" stroke="#449FDB" x1="0" y1="352" x2="512" y2="352"/>
		<line opacity="0.3" fill="none" stroke="#449FDB" enable-background="new    " x1="0" y1="368" x2="512" y2="368"/>
		<line fill="none" stroke="#449FDB" x1="0" y1="384" x2="512" y2="384"/>
		<line opacity="0.3" fill="none" stroke="#449FDB" enable-background="new    " x1="0" y1="400" x2="512" y2="400"/>
		<line fill="none" stroke="#449FDB" x1="0" y1="416" x2="512" y2="416"/>
		<line opacity="0.3" fill="none" stroke="#449FDB" enable-background="new    " x1="0" y1="432" x2="512" y2="432"/>
		<line fill="none" stroke="#449FDB" x1="0" y1="448" x2="512" y2="448"/>
		<line opacity="0.3" fill="none" stroke="#449FDB" enable-background="new    " x1="0" y1="464" x2="512" y2="464"/>
		<line fill="none" stroke="#449FDB" x1="0" y1="480" x2="512" y2="480"/>
		<line opacity="0.3" fill="none" stroke="#449FDB" enable-background="new    " x1="0" y1="496" x2="512" y2="496"/>
	</g>
</g>
<g id="Layer_2" opacity="0.9">
	<path fill="#FFFFFF" d="M29.381,27.02l-4.738-4.029c-0.49-0.442-1.015-0.643-1.438-0.624C24.324,21.057,25,19.356,25,17.5
		c0-4.143-3.357-7.5-7.5-7.5S10,13.357,10,17.5c0,4.143,3.357,7.5,7.5,7.5c1.857,0,3.557-0.676,4.866-1.795
		c-0.019,0.423,0.182,0.947,0.624,1.438l4.029,4.738c0.69,0.766,1.817,0.83,2.505,0.144C30.211,28.837,30.146,27.71,29.381,27.02
		L29.381,27.02z M17.5,22.5c-2.761,0-5-2.238-5-5s2.239-5,5-5c2.761,0,5,2.238,5,5S20.261,22.5,17.5,22.5z M18.75,13.75h-2.5v2.5
		h-2.5v2.5h2.5v2.5h2.5v-2.5h2.5v-2.5h-2.5V13.75z"/>
</g>
</svg>
